<svg xmlns="http://www.w3.org/2000/svg" viewBox="0 0 412 915" width="412" height="915" font-family="system-ui, -apple-system, sans-serif">
  <defs>
    <clipPath id="phone2">
      <rect x="0" y="0" width="412" height="915" rx="40" ry="40"/>
    </clipPath>
    <g id="ic-prev"><polygon points="22,-12 22,12 4,0" fill="#eee"/><polygon points="4,-12 4,12 -14,0" fill="#eee"/><rect x="-18" y="-12" width="4" height="24" fill="#eee"/></g>
    <g id="ic-play"><polygon points="-10,-14 -10,14 14,0" fill="#eee"/></g>
    <g id="ic-next"><polygon points="-22,-12 -22,12 -4,0" fill="#eee"/><polygon points="-4,-12 -4,12 14,0" fill="#eee"/><rect x="14" y="-12" width="4" height="24" fill="#eee"/></g>
    <g id="ic-vold"><polygon points="-14,-6 -4,-6 4,-14 4,14 -4,6 -14,6" fill="#eee"/><path d="M 9 -4 Q 14 0 9 4" stroke="#eee" stroke-width="2" fill="none"/></g>
    <g id="ic-mute"><polygon points="-14,-6 -4,-6 4,-14 4,14 -4,6 -14,6" fill="#eee"/><line x1="10" y1="-8" x2="20" y2="8" stroke="#eee" stroke-width="2.5"/><line x1="20" y1="-8" x2="10" y2="8" stroke="#eee" stroke-width="2.5"/></g>
    <g id="ic-volu"><polygon points="-16,-6 -6,-6 2,-14 2,14 -6,6 -16,6" fill="#eee"/><path d="M 7 -5 Q 12 0 7 5" stroke="#eee" stroke-width="2" fill="none"/><path d="M 12 -10 Q 20 0 12 10" stroke="#eee" stroke-width="2" fill="none"/></g>
    <g id="ic-brd"><circle cx="0" cy="0" r="6" fill="#eee"/><g stroke="#eee" stroke-width="2" stroke-linecap="round"><line x1="-12" y1="0" x2="-8" y2="0"/><line x1="8" y1="0" x2="12" y2="0"/></g></g>
    <g id="ic-bru"><circle cx="0" cy="0" r="6" fill="#eee"/><g stroke="#eee" stroke-width="2" stroke-linecap="round"><line x1="-12" y1="0" x2="-8" y2="0"/><line x1="8" y1="0" x2="12" y2="0"/><line x1="0" y1="-12" x2="0" y2="-8"/><line x1="0" y1="8" x2="0" y2="12"/><line x1="-9" y1="-9" x2="-6" y2="-6"/><line x1="6" y1="6" x2="9" y2="9"/><line x1="-9" y1="9" x2="-6" y2="6"/><line x1="6" y1="-6" x2="9" y2="-9"/></g></g>
  </defs>
  <g clip-path="url(#phone2)">
    <rect width="412" height="915" fill="#0e0e10"/>
    <rect x="0" y="0" width="412" height="32" fill="#1a3a1a" opacity="0.5"/>
    <rect x="6" y="38" width="400" height="320" rx="14" fill="#16161a" stroke="#2a2a30" opacity="0.5"/>
    <rect x="0" y="0" width="412" height="915" fill="#000" opacity="0.5"/>

    <g transform="translate(0,520)">
      <rect x="0" y="0" width="412" height="395" rx="18" fill="#1a1a20" stroke="#333"/>
      <rect x="186" y="14" width="40" height="4" rx="2" fill="#444"/>

      <text x="14" y="48" font-size="11" fill="#888" letter-spacing="0.5">MEDIA</text>
      <g transform="translate(10,58)">
        <rect x="0" y="0" width="128" height="56" rx="8" fill="#22232a" stroke="#33343d"/>
        <use href="#ic-prev" transform="translate(64,28)"/>
        <rect x="132" y="0" width="128" height="56" rx="8" fill="#22232a" stroke="#33343d"/>
        <use href="#ic-play" transform="translate(196,28)"/>
        <rect x="264" y="0" width="128" height="56" rx="8" fill="#22232a" stroke="#33343d"/>
        <use href="#ic-next" transform="translate(328,28)"/>
      </g>

      <text x="14" y="148" font-size="11" fill="#888" letter-spacing="0.5">VOLUME</text>
      <g transform="translate(10,158)">
        <rect x="0" y="0" width="128" height="56" rx="8" fill="#22232a" stroke="#33343d"/>
        <use href="#ic-vold" transform="translate(64,28)"/>
        <rect x="132" y="0" width="128" height="56" rx="8" fill="#22232a" stroke="#33343d"/>
        <use href="#ic-mute" transform="translate(196,28)"/>
        <rect x="264" y="0" width="128" height="56" rx="8" fill="#22232a" stroke="#33343d"/>
        <use href="#ic-volu" transform="translate(328,28)"/>
      </g>

      <text x="14" y="248" font-size="11" fill="#888" letter-spacing="0.5">LUMINOSITÀ</text>
      <g transform="translate(10,258)">
        <rect x="0" y="0" width="128" height="56" rx="8" fill="#22232a" stroke="#33343d"/>
        <use href="#ic-brd" transform="translate(64,28)"/>
        <rect x="132" y="0" width="128" height="56" rx="8" fill="#22232a" stroke="#33343d"/>
        <use href="#ic-bru" transform="translate(196,28)"/>
        <rect x="264" y="0" width="128" height="56" rx="8" fill="#22232a" stroke="#33343d"/>
        <text x="328" y="36" text-anchor="middle" font-size="14" fill="#aaa">Chiudi</text>
      </g>
    </g>
  </g>
  <rect x="0.5" y="0.5" width="411" height="914" rx="40" ry="40" fill="none" stroke="#222"/>
</svg>
